<svg version="1.0" xmlns="http://www.w3.org/2000/svg" viewBox="0 0 45 44">
<style type="text/css">
	.icon{fill:#234E55;}
</style>

<g transform="translate(0.000000,44.000000) scale(0.100000,-0.100000)" >
<path class="icon bulk floor-icon" d="M181 414 c-25 -32 -26 -43 -5 -72 19 -27 64 -29 87 -4 24 26 21 68
-5 86 -32 23 -54 20 -77 -10z"/>
<path class="icon bulk floor-icon" d="M105 254 c-29 -35 -35 -48 -25 -57 9 -9 19 -3 46 28 l34 40 0 -37 0
-38 65 0 65 0 0 33 1 32 28 -32 c28 -34 51 -43 51 -20 0 7 -16 32 -36 55 l-36
42 -78 0 -78 0 -37 -46z"/>
<path class="icon bulk floor-icon" d="M125 130 c-18 -19 -25 -34 -21 -47 8 -26 74 -89 83 -79 6 6 2 21 -22
78 -5 12 1 21 21 31 l28 15 -31 15 c-29 16 -31 15 -58 -13z"/>
<path class="icon bulk floor-icon" d="M270 148 c-36 -13 -37 -18 -12 -37 23 -17 23 -18 6 -54 -27 -57 -6
-68 40 -20 41 44 45 71 14 100 -18 17 -28 19 -48 11z"/>
</g>
</svg>
