<svg viewBox="0 0 114 115" xmlns="http://www.w3.org/2000/svg">
<style type="text/css">
	.icon{fill:#234E55;}
</style>
<g clip-path="url(#clip0_1014_1379)">
<path class="icon bulk floor-icon" d="M101.283 0.0800781H12.7167C5.7 0.0914781 0.0114 5.78008 0 12.7968V101.363C0.0114 108.38 5.7 114.069 12.7167 114.08H101.283C108.3 114.069 113.989 108.38 114 101.363V12.7968C113.989 5.78008 108.3 0.0914781 101.283 0.0800781ZM111.15 101.363C111.133 106.807 106.727 111.213 101.283 111.23H12.7167C7.2732 111.213 2.8671 106.807 2.85 101.363V12.7968C2.8671 7.35328 7.2732 2.94718 12.7167 2.93008H101.283C106.727 2.94718 111.133 7.35328 111.15 12.7968V101.363ZM90.7782 29.2299L91.4508 26.8131L70.5717 21.1302L70.3836 21.0789L67.488 31.2306H35.4939L39.7803 84.5598C39.8145 87.1647 41.9577 89.2737 44.5911 89.2737H69.4602C72.0879 89.2737 74.2311 87.1704 74.271 84.5712L79.3041 31.2306H70.1214L72.1392 24.1569L90.7839 29.2356L90.7782 29.2299ZM38.4522 43.8789L37.6599 33.6702H66.7926L63.8856 43.8789H38.4579H38.4522ZM55.8828 57.6159L53.8593 63.3729L48.051 61.3665L50.0745 55.6095L55.8828 57.6159ZM50.8611 82.4337L44.6538 75.132L52.0182 68.976L58.2255 76.2777L50.8611 82.4337ZM67.146 73.7127L58.0488 70.572L61.2123 61.5546L70.3095 64.6953L67.146 73.7127ZM77.1381 33.6702L76.209 43.8789H66.5133L69.4203 33.6702H77.1381Z"/>
</g>
<defs>
<clipPath id="clip0_1014_1379">
<rect width="114" height="114" transform="translate(0 0.0800781)"/>
</clipPath>
</defs>
</svg>
