<svg width="16" height="16" viewBox="0 0 16 16" fill="none" xmlns="http://www.w3.org/2000/svg">
<g clip-path="url(#clip0)">
<path d="M11.0792 2.88C8.3816 2.4592 5.7744 3.52 5.1128 4.6176H3.9064C3.9064 4.2752 3.6624 4 3.36 4C3.0576 4 2.8144 4.2752 2.8144 4.6152C2.81141 4.72888 2.83966 4.84121 2.89608 4.93995C2.95251 5.03869 3.03494 5.12006 3.1344 5.1752C3.03707 5.2239 2.95542 5.29903 2.89883 5.39199C2.84223 5.48495 2.81297 5.59198 2.8144 5.7008C2.81038 5.77493 2.82152 5.84911 2.84712 5.9188C2.87273 5.98849 2.91227 6.05223 2.96332 6.10612C3.01438 6.16002 3.07589 6.20295 3.14409 6.23229C3.21229 6.26163 3.28576 6.27676 3.36 6.27676C3.43424 6.27676 3.50771 6.26163 3.57591 6.23229C3.64411 6.20295 3.70562 6.16002 3.75668 6.10612C3.80773 6.05223 3.84727 5.98849 3.87288 5.9188C3.89848 5.84911 3.90962 5.77493 3.9056 5.7008H5.1056C5.6712 6.764 7.7968 7.7328 11.0824 7.3904C11.6176 7.3344 12.0552 6.38 12.0552 5.1336C12.0552 3.8872 11.6128 2.96 11.0792 2.88ZM11.0792 7.0544C10.6224 7.0544 10.2528 6.196 10.2528 5.1344C10.2528 4.0728 10.6224 3.2144 11.0792 3.2144C11.536 3.2144 11.9056 4.0728 11.9056 5.1344C11.9056 6.196 11.536 7.0504 11.0792 7.0504V7.0544ZM11.3768 5.1344C11.3768 5.516 11.244 5.8248 11.0792 5.8248C10.9144 5.8248 10.7816 5.516 10.7816 5.1344C10.7816 4.7528 10.9144 4.444 11.0792 4.444C11.244 4.444 11.3768 4.752 11.3768 5.1328V5.1344ZM12.1536 11.52C11.9609 11.3297 11.7585 11.1494 11.5472 10.98C11.7585 10.8106 11.9609 10.6303 12.1536 10.44C12.5536 10.0584 12.4512 9.1896 12.4512 9.1896L10.8336 10.6224C10.0688 10.1472 7.6688 8.748 5.9392 8.7656C3.8592 8.7864 2.7 10.9056 2.7 10.9056C2.7 10.9056 3.9064 13.1936 5.8896 13.1936C8.016 13.1936 9.8488 11.8584 10.6496 11.1736L12.4512 12.7736C12.4512 12.7736 12.5504 11.9024 12.1536 11.52ZM4.452 10.948C4.2784 10.948 4.1376 10.768 4.1376 10.548C4.1376 10.328 4.2784 10.148 4.452 10.148C4.6256 10.148 4.7664 10.328 4.7664 10.548C4.7664 10.768 4.6256 10.9496 4.452 10.9496V10.948ZM5.328 12.484C5.66611 12.0096 5.85597 11.4455 5.8736 10.8632C5.8984 9.8992 5.328 9.4432 5.328 9.4432C5.328 9.4432 6.2368 9.4328 6.2704 10.8832C6.304 12.3336 5.328 12.4856 5.328 12.4856V12.484ZM14.2152 16H1.7848C1.31164 15.9994 0.858034 15.8111 0.523457 15.4765C0.18888 15.142 0.000634977 14.6884 0 14.2152L0 1.7848C0.000634977 1.31164 0.18888 0.858034 0.523457 0.523457C0.858034 0.18888 1.31164 0.000634977 1.7848 0L14.2152 0C14.6884 0.000634977 15.142 0.18888 15.4765 0.523457C15.8111 0.858034 15.9994 1.31164 16 1.7848V14.2152C15.9994 14.6884 15.8111 15.142 15.4765 15.4765C15.142 15.8111 14.6884 15.9994 14.2152 16ZM1.7848 0.4C1.41792 0.401265 1.06642 0.54757 0.806996 0.806996C0.54757 1.06642 0.401265 1.41792 0.4 1.7848V14.2152C0.401265 14.5821 0.54757 14.9336 0.806996 15.193C1.06642 15.4524 1.41792 15.5987 1.7848 15.6H14.2152C14.5821 15.5987 14.9336 15.4524 15.193 15.193C15.4524 14.9336 15.5987 14.5821 15.6 14.2152V1.7848C15.5987 1.41792 15.4524 1.06642 15.193 0.806996C14.9336 0.54757 14.5821 0.401265 14.2152 0.4H1.7848Z" fill="#234E55"/>
</g>
<defs>
<clipPath id="clip0">
<rect width="16" height="16" fill="white"/>
</clipPath>
</defs>
</svg>
