<svg width="16" height="16" viewBox="0 0 16 16" fill="none" xmlns="http://www.w3.org/2000/svg">
<g clip-path="url(#clip0)">
<path d="M11.6152 4.276C11.436 4.27568 11.2609 4.22226 11.1121 4.12247C10.9632 4.02268 10.8473 3.88101 10.7789 3.71536C10.7106 3.54971 10.6929 3.36751 10.728 3.19179C10.7632 3.01607 10.8496 2.85472 10.9764 2.72811C11.1033 2.60151 11.2648 2.51535 11.4406 2.4805C11.6163 2.44566 11.7985 2.4637 11.964 2.53235C12.1296 2.601 12.271 2.71718 12.3706 2.8662C12.4701 3.01522 12.5232 3.1904 12.5232 3.3696C12.5231 3.48873 12.4995 3.60668 12.4538 3.71671C12.4081 3.82674 12.3412 3.92669 12.2569 4.01085C12.1726 4.09502 12.0725 4.16176 11.9624 4.20725C11.8523 4.25274 11.7343 4.2761 11.6152 4.276ZM9.4816 5.636V8.42C9.4816 8.9608 10.2104 8.9608 10.2104 8.42L10.2736 5.8736H10.4608V12.8456C10.4608 13.5656 11.4536 13.548 11.4536 12.8456L11.516 8.7984H11.7128L11.776 12.8456C11.776 13.548 12.7688 13.5656 12.7688 12.8456V5.8704H12.96L13.0232 8.4168C13.0232 8.9576 13.7528 8.9576 13.7528 8.4168V5.632C13.7528 4.6792 13.468 4.4544 12.5936 4.4544H10.64C9.7664 4.4544 9.4824 4.6792 9.4824 5.632L9.4816 5.636ZM5.6416 3.3728C5.64239 3.1931 5.5898 3.01722 5.49049 2.86745C5.39118 2.71769 5.24963 2.60079 5.0838 2.53158C4.91796 2.46237 4.7353 2.44398 4.55899 2.47872C4.38269 2.51347 4.22067 2.59979 4.09349 2.72675C3.96631 2.8537 3.8797 3.01557 3.84464 3.19181C3.80958 3.36806 3.82766 3.55075 3.89657 3.71671C3.96548 3.88267 4.08213 4.02442 4.23172 4.124C4.38131 4.22357 4.5571 4.27647 4.7368 4.276C4.85596 4.27611 4.97398 4.25271 5.08409 4.20716C5.19421 4.1616 5.29426 4.09478 5.37852 4.01052C5.46278 3.92626 5.5296 3.82621 5.57516 3.71609C5.62071 3.60598 5.64411 3.48796 5.644 3.3688L5.6416 3.3728ZM2.9192 8.0584L3.7408 5.716H3.8352C3.8352 5.716 2.756 9.9096 2.7104 10.0672C2.6872 10.1472 2.72 10.2024 2.8032 10.2024H3.7368V12.96C3.7368 13.52 4.576 13.52 4.576 12.96V10.184H4.896V12.96C4.896 13.52 5.7352 13.52 5.7352 12.96V10.2024H6.6712C6.7512 10.2024 6.7872 10.1456 6.764 10.0672C6.7192 9.9072 5.6392 5.716 5.6392 5.716H5.7328L6.5552 8.0584C6.7216 8.5728 7.3552 8.3784 7.1952 7.8264L6.4168 5.2664C6.2664 4.8144 5.8144 4.4568 5.1528 4.4568H4.32C3.66 4.4568 3.2072 4.8136 3.0568 5.2664L2.2776 7.8264C2.1152 8.3776 2.7512 8.5728 2.9192 8.0584ZM7.8528 12.9384C7.85269 12.996 7.86396 13.0531 7.88594 13.1064C7.90793 13.1597 7.9402 13.2081 7.98092 13.2489C8.02164 13.2897 8.07 13.3221 8.12325 13.3442C8.17649 13.3662 8.23356 13.3776 8.2912 13.3776C8.34877 13.3775 8.40576 13.3661 8.45891 13.3439C8.51206 13.3218 8.56033 13.2894 8.60096 13.2486C8.6416 13.2078 8.6738 13.1595 8.69573 13.1062C8.71767 13.053 8.7289 12.996 8.7288 12.9384V2.9008C8.7288 2.78474 8.6827 2.67344 8.60063 2.59137C8.51856 2.5093 8.40726 2.4632 8.2912 2.4632C8.23367 2.46309 8.17668 2.47434 8.12349 2.49628C8.07031 2.51822 8.02197 2.55044 7.98125 2.59109C7.94053 2.63173 7.90823 2.68001 7.88619 2.73315C7.86414 2.7863 7.8528 2.84327 7.8528 2.9008V12.9384ZM16.0008 14.2184V1.7848C16.0002 1.3115 15.8118 0.857775 15.4771 0.523175C15.1423 0.188575 14.6885 0.0004233 14.2152 0L1.7848 0C1.31164 0.000634977 0.858034 0.18888 0.523457 0.523457C0.18888 0.858034 0.000634977 1.31164 0 1.7848L0 14.2152C0.000634977 14.6884 0.18888 15.142 0.523457 15.4765C0.858034 15.8111 1.31164 15.9994 1.7848 16H14.2152C14.6884 15.9994 15.142 15.8111 15.4765 15.4765C15.8111 15.142 15.9994 14.6884 16 14.2152L16.0008 14.2184ZM14.2152 0.4C14.5821 0.401265 14.9336 0.54757 15.193 0.806996C15.4524 1.06642 15.5987 1.41792 15.6 1.7848V14.2152C15.5987 14.5821 15.4524 14.9336 15.193 15.193C14.9336 15.4524 14.5821 15.5987 14.2152 15.6H1.7848C1.41792 15.5987 1.06642 15.4524 0.806996 15.193C0.54757 14.9336 0.401265 14.5821 0.4 14.2152V1.7848C0.401265 1.41792 0.54757 1.06642 0.806996 0.806996C1.06642 0.54757 1.41792 0.401265 1.7848 0.4H14.2152Z" fill="#234E55"/>
</g>
<defs>
<clipPath id="clip0">
<rect width="16" height="16" fill="white"/>
</clipPath>
</defs>
</svg>
