<svg viewBox="0 0 114 115" xmlns="http://www.w3.org/2000/svg">
<style type="text/css">
	.icon{fill:#234E55;}
</style>
<g clip-path="url(#clip0_1014_1377)">
<path class="icon bulk floor-icon" d="M101.283 0.919922H12.7167C5.7 0.931322 0.0114 6.61992 0 13.6366V102.203C0.0114 109.22 5.7 114.909 12.7167 114.92H101.283C108.3 114.909 113.989 109.22 114 102.203V13.6366C113.989 6.61992 108.3 0.931322 101.283 0.919922ZM111.15 102.203C111.133 107.647 106.727 112.053 101.283 112.07H12.7167C7.2732 112.053 2.8671 107.647 2.85 102.203V13.6366C2.8671 8.19312 7.2732 3.78702 12.7167 3.76992H101.283C106.727 3.78702 111.133 8.19312 111.15 13.6366V102.203ZM70.9137 96.3037C63.6519 97.9738 48.1365 99.319 39.9798 95.4487C35.5053 93.3283 34.0347 88.8823 33.63 85.3027C33.2823 82.3615 31.4982 69.2059 33.003 56.8597C34.5135 44.485 41.7639 36.0889 41.7639 36.0889L42.6759 36.4537C43.0464 35.4391 43.4568 34.1566 43.662 32.9596C43.662 32.9596 42.1458 30.9532 40.413 28.2058C39.3072 26.4502 39.3072 22.882 40.641 20.716C42.978 16.9312 47.8116 15.6715 50.8725 17.2504C52.4628 18.0712 55.2729 19.1086 57.1083 24.6718C58.1172 27.727 58.6986 33.1762 57.0285 37.531C56.5098 38.8762 53.5971 38.1067 52.2405 37.0636C51.9327 37.0636 51.6762 37.0921 51.4881 37.1605C50.7186 37.4398 50.2626 38.557 50.0175 39.412L50.8896 39.7654L51.3285 42.6154C51.3285 42.6154 54.2469 48.0988 55.1532 54.5854C55.1988 54.9046 55.2444 55.2637 55.3014 55.6399C57.2736 58.0852 59.3313 59.8294 61.104 59.6698C63.5094 59.4532 70.4634 48.3097 70.4634 48.3097L70.9194 48.5947C71.0676 48.2185 71.3925 47.4889 71.9625 46.8277C72.7662 45.8929 75.3198 44.3026 75.9069 44.5534C76.494 44.8042 74.6301 46.537 74.6301 46.537C74.6301 46.537 76.6764 45.9613 77.1153 45.1291C77.5542 44.2969 77.4459 43.1455 77.9532 43.2538C78.4662 43.3621 78.4662 45.0835 78.2439 46.0468C78.0273 47.0044 77.5143 47.221 77.5143 47.221C77.5143 47.221 77.4402 47.6884 77.0754 48.1957C76.7106 48.703 74.4078 49.6606 73.9518 50.4757L74.6301 50.8975C74.6301 50.8975 68.8845 71.1268 59.1318 70.8019C58.539 70.7848 57.9405 70.6708 57.342 70.4941C57.6384 72.6544 58.5846 79.5571 58.6245 79.8706C58.6245 79.8706 83.1915 78.0922 84.7818 85.1374C84.7818 85.1488 84.7818 85.1545 84.7818 85.1659C86.4177 92.5303 78.1527 94.6165 70.9023 96.2866L70.9137 96.3037Z" />
</g>
<defs>
<clipPath id="clip0_1014_1377">
<rect width="114" height="114" transform="translate(0 0.919922)"/>
</clipPath>
</defs>
</svg>
