<svg width="16" height="16" viewBox="0 0 16 16" fill="none" xmlns="http://www.w3.org/2000/svg">
  <path
    d="M14.216 0H1.784C0.8 0 0 0.8 0 1.784V14.216C0 15.2 0.8 16 1.784 16H14.216C15.2 16 16 15.2 16 14.216V1.784C16 0.8 15.2 0 14.216 0ZM15.6 14.216C15.6 14.976 14.976 15.6 14.216 15.6H1.784C1.024 15.6 0.4 14.976 0.4 14.216V1.784C0.4 1.024 1.024 0.4 1.784 0.4H14.216C14.976 0.4 15.6 1.024 15.6 1.784V14.216ZM11.624 5.416H14.096V13.84H1.744V12.096H4.216V10.36H6.688V8.808H9.064V7.16H11.624V5.416ZM14.28 2.744C14.28 2.944 14.12 3.112 13.912 3.112H12.84C12.36 3.112 12.144 3.208 11.72 3.504C11.272 3.816 2.328 10.456 2.232 10.52C2.072 10.64 1.84 10.608 1.72 10.448C1.6 10.288 1.632 10.056 1.792 9.936C2.16 9.664 10.84 3.224 11.296 2.904C11.792 2.56 12.168 2.384 12.832 2.384H13.904C14.112 2.376 14.28 2.536 14.28 2.744C14.28 2.736 14.28 2.744 14.28 2.744Z"
    fill="#234E55"
  />
</svg>
