<svg version="1.1" baseProfile="full" viewBox="0 0 150 220" xmlns="http://www.w3.org/2000/svg">
      <g class="seat" transform="scale(1.2)">
      <path class="bd" fill="${style.fillColor}" stroke="${style.strokeColor}" stroke-width="${style.strokeWidth}" d="M89.24,20c-.34-7.62-6.46-6.61-9.52-10.33S78.71.5,70.55.5H29.75c-8.16,0-6.12,5.42-9.18,9.15S11.4,12.37,11.06,20s0,13.74,0,13.74H89.24S89.58,27.61,89.24,20Z"></path>
      <path class="bd" fill="${style.fillColor}" stroke="${style.strokeColor}" stroke-width="${style.strokeWidth}" d="M85,72.8H16.81a6.89,6.89,0,0,1-6.88-6.86V37.14a6.89,6.89,0,0,1,6.88-6.86,326.72,326.72,0,0,1,34.08-1.9A313.07,313.07,0,0,1,85,30.27a6.89,6.89,0,0,1,6.88,6.86v28.8A6.89,6.89,0,0,1,85,72.8Z"></path>
      <rect class="bd" fill="${style.fillColor}" stroke="${style.strokeColor}" stroke-width="${style.strokeWidth}" x="9.93" y="71.69" width="81.91" height="60.75" rx="7.59" ry="7.59"></rect>
      <path class="bc" stroke="${style.strokeColor}" stroke-width="${style.strokeWidth}" fill="${style.armrestColor}" d="M9,142.15H3.08A3.09,3.09,0,0,1,0,139.07V84.52a3.09,3.09,0,0,1,3.08-3.08H9a3.09,3.09,0,0,1,3.08,3.08v54.55A3.09,3.09,0,0,1,9,142.15Zm91-3.08V84.52a3.09,3.09,0,0,0-3.08-3.08H91.29a3.09,3.09,0,0,0-3.08,3.08v54.55a3.09,3.09,0,0,0,3.08,3.08h5.63A3.09,3.09,0,0,0,100,139.07Z"></path>
      <path class="bd" stroke="${style.strokeColor}" stroke-width="${style.strokeWidth}" fill="${style.fillColor}" d="M84.71,145.5H14.9c-2.74,0-5-2.8-5-6.23V132c0-3.44,2.23-6.23,5-6.23l.19,0a195.67,195.67,0,0,0,34.71,3,210.38,210.38,0,0,0,34.72-3l.18,0c2.74,0,5,2.8,5,6.23v7.25C89.67,142.7,87.44,145.5,84.71,145.5Z"></path>
      <path class="cf" fill="white" stroke="white" d="M67.32,141.13h-35a2.94,2.94,0,0,1-2.95-2.94V128.06a2.93,2.93,0,0,1,.08-.66L32,116.12a3,3,0,0,1,2.87-2.28H64.35a3,3,0,0,1,2.85,2.2l3,11.31a2.93,2.93,0,0,1,.1.74v10.09A2.94,2.94,0,0,1,67.32,141.13Z"></path>
      </g></svg>