<svg version="1.1" baseProfile="full" xmlns="http://www.w3.org/2000/svg">
            <g class="seat" transform="scale(1)"><path class="bd" stroke="${style.strokeColor}" stroke-width="${style.strokeWidth}" fill="${style.fillColor}" d="M127.05,89.33H12.38V13.83A9.67,9.67,0,0,1,22,4.17,455.22,455.22,0,0,1,69.72,1.5a436.21,436.21,0,0,1,47.71,2.67,9.67,9.67,0,0,1,9.63,9.66Z"></path>
            <path class="bd" stroke="${style.strokeColor}" stroke-width="${style.strokeWidth}" fill="${style.fillColor}" d="M12.38,89.33H127.05a0,0,0,0,1,0,0v36.26a7.59,7.59,0,0,1-7.59,7.59H20a7.59,7.59,0,0,1-7.59-7.59V89.33A0,0,0,0,1,12.38,89.33Z"></path><path stroke="${style.strokeColor}" stroke-width="${style.strokeWidth}" fill="${style.armrestColor}" class="bc" d="M13.84,131.7H3.08A3.09,3.09,0,0,1,0,128.61V33a3.09,3.09,0,0,1,3.08-3.08H13.84A3.09,3.09,0,0,1,16.93,33v95.64A3.09,3.09,0,0,1,13.84,131.7ZM140,128.61V33a3.09,3.09,0,0,0-3.08-3.08H126.57A3.09,3.09,0,0,0,123.49,33v95.64a3.09,3.09,0,0,0,3.08,3.08h10.34A3.09,3.09,0,0,0,140,128.61Z"></path>
            <path class="bd" stroke="${style.strokeColor}" stroke-width="${style.strokeWidth}" fill="${style.fillColor}" d="M118.59,146.5H20.86c-3.83,0-7-3.93-7-8.77v-10.2c0-4.84,3.12-8.77,7-8.77l.27,0A272.65,272.65,0,0,0,69.72,123a293.15,293.15,0,0,0,48.61-4.24l.25,0c3.83,0,7,3.93,7,8.77v10.2C125.54,142.57,122.42,146.5,118.59,146.5Z"></path>
            <path stroke="${style.strokeColor}" stroke-width="${style.strokeWidth}" fill="${style.fillColor}" class="cf" d="M94.24,140.35H45.19a4.13,4.13,0,0,1-4.13-4.14V122a4.15,4.15,0,0,1,.11-.93l3.65-7a4.13,4.13,0,0,1,4-3.21H90.1a4.13,4.13,0,0,1,4,3.09L98.24,121a4.15,4.15,0,0,1,.13,1v14.2A4.13,4.13,0,0,1,94.24,140.35Z"></path>
            </g>
        </svg>